[Header]
FileType HTR
DataType HTRS
FileVersion 1
NumSegments 22
NumFrames 4
DataFrameRate 24
EulerRotationOrder ZYX
CalibrationUnits mm
RotationUnits Degrees
GlobalAxisofGravity Y
BoneLengthAxis Y
ScaleFactor 1.0
[SegmentNames&Hierarchy]
reference	GLOBAL
Hips	reference
Spine	Hips
Spine1	Spine
Neck	Spine1
Head	Neck
LeftShoulder	Spine1
LeftArm	LeftShoulder
LeftForeArm	LeftArm
LeftHand	LeftForeArm
RightShoulder	Spine1
RightArm	RightShoulder
RightForeArm	RightArm
RightHand	RightForeArm
LeftUpLeg	Hips
LeftLeg	LeftUpLeg
LeftFoot	LeftLeg
LeftToeBase	LeftFoot
RightUpLeg	Hips
RightLeg	RightUpLeg
RightFoot	RightLeg
RightToeBase	RightFoot
[BasePosition]
reference	0	0	0	0	0	0	1
Hips	0	0	0	0	0	0	1
Spine	0	0	0	0	-0	90	1
Spine1	0	0	0	0	0	0	1
Neck	0	0	0	-7.352327771	-7.352327771	90	1
Head	0	0	0	0	-0	90	1
LeftShoulder	0	0	0	0	0	0	1
LeftArm	0	0	0	0	0	0	1
LeftForeArm	0	0	0	0	0	0	1
LeftHand	0	0	0	0	0	0	1
RightShoulder	0	0	0	0	-0	180	1
RightArm	0	0	0	0	-0	180	1
RightForeArm	0	0	0	0	-0	180	1
RightHand	0	0	0	0	-0	180	1
LeftUpLeg	0	0	0	0	-0	-90	1
LeftLeg	0	0	0	0	-0	-90	1
LeftFoot	0	0	0	66.57146043	-66.57146043	-90	1
LeftToeBase	0	0	0	0	-90	0	1
RightUpLeg	0	0	0	0	-0	-90	1
RightLeg	0	0	0	0	-0	-90	1
RightFoot	0	0	0	66.57146043	-66.57146043	-90	1
RightToeBase	0	0	0	0	-90	0	1
[reference]
118	0	0	0	0	-0	0	1.0
119	0	0	0	0	-0	0	1.0
120	0	0	0	0	-0	0	1.0
121	0	0	0	0	-0	0	1.0
[Hips]
118	3.503647804	8.664692879	1.41504693	3.539869308	-134.2052307	-0.972120285	1.0
119	3.665083408	8.664274216	1.424343586	3.127367258	-133.8552094	-1.458368421	1.0
120	3.866027832	8.511521339	1.433327675	2.854865074	-132.8612061	-1.916553497	1.0
121	4.062429905	8.316519737	1.441977978	2.372879028	-131.6109619	-1.167800903	1.0
[Spine]
118	0	0.7457100153	0	-8.566005707	-0.3602888286	-90.8925705	1.0
119	0	0.7457100153	0	-7.866213322	-0.3034508228	-91.07611084	1.0
120	0	0.7457100153	0	-6.823320866	-0.6891239882	-91.455513	1.0
121	0	0.7457100153	0	-6.980676174	-1.416603923	-91.0424118	1.0
[Spine1]
118	0	2.140589952	0	2.265413761	-0.1648430675	3.113871098	1.0
119	0	2.140589952	0	2.067440033	-0.1465650648	3.408187628	1.0
120	0	2.140589952	0	2.152904749	-0.2696329355	3.721812725	1.0
121	0	2.140589952	0	3.934819221	-0.5861580968	3.895334482	1.0
[Neck]
118	0	2.32246995	0	-12.21470451	13.96812916	-91.28955841	1.0
119	0	2.32246995	0	-9.608428001	14.16863441	-92.31642151	1.0
120	0	2.32246995	0	-8.129655838	14.24417114	-93.06504059	1.0
121	0	2.32246995	0	-9.133454323	14.43272305	-93.64469147	1.0
[Head]
118	0	1.409579992	0.1818799973	-1.483707309	7.142100811	-91.5803299	1.0
119	0	1.409579992	0.1818799973	-2.303807735	7.281843185	-91.44485474	1.0
120	0	1.409579992	0.1818799973	-3.762138367	7.323996067	-91.91555786	1.0
121	0	1.409579992	0.1818799973	-4.695441246	7.536468029	-91.96124268	1.0
[LeftShoulder]
118	0.3668199778	1.946700096	-0.02662999928	-17.01509857	-14.10099602	-0.01833450235	1.0
119	0.3668199778	1.946700096	-0.02662999928	-16.90267944	-14.14283276	-0.4199056327	1.0
120	0.3668199778	1.946700096	-0.02662999928	-17.69476891	-13.88525772	-0.4826643765	1.0
121	0.3668199778	1.946700096	-0.02662999928	-18.67705345	-13.69098377	0.01248411369	1.0
[LeftArm]
118	1.140689969	0	0	43.24565887	-4.040541649	-65.36334229	1.0
119	1.140689969	0	0	43.55503464	-4.035870552	-65.43638611	1.0
120	1.140689969	0	0	43.86322784	-3.674266577	-65.70315552	1.0
121	1.140689969	0	0	43.04871368	-3.74652648	-66.36993408	1.0
[LeftForeArm]
118	2.749800205	0	0	60.74045563	-141.5934448	-26.36603546	1.0
119	2.749800205	0	0	61.14993286	-141.4841919	-26.7308979	1.0
120	2.749800205	0	0	61.25804138	-141.1766357	-27.233284	1.0
121	2.749800205	0	0	63.85560608	-141.2134094	-28.31335449	1.0
[LeftHand]
118	2.295179844	0	0	-8.707299232	-21.31866074	8.46145153	1.0
119	2.295179844	0	0	-8.918564796	-21.57848549	8.490644455	1.0
120	2.295179844	0	0	-9.388458252	-21.82159805	8.421637535	1.0
121	2.295179844	0	0	-8.745102882	-22.09032631	6.883664608	1.0
[RightShoulder]
118	-0.3601199985	1.946700096	-0.02662999928	-7.912748814	4.987337589	173.4722595	1.0
119	-0.3601199985	1.946700096	-0.02662999928	-7.769194603	4.936606407	173.9593811	1.0
120	-0.3601199985	1.946700096	-0.02662999928	-7.630901337	4.841059208	174.4811707	1.0
121	-0.3601199985	1.946700096	-0.02662999928	-8.287905693	4.598395824	174.3477173	1.0
[RightArm]
118	-1.140689969	0	0	55.12368774	7.59421587	-103.4527969	1.0
119	-1.140689969	0	0	55.53663254	7.663599014	-103.7436981	1.0
120	-1.140689969	0	0	55.56607819	7.989472866	-104.0577545	1.0
121	-1.140689969	0	0	54.7818222	8.38158989	-104.1475906	1.0
[RightForeArm]
118	-2.749800205	0	0	-106.1459198	40.43934631	30.70970345	1.0
119	-2.749800205	0	0	-105.5171585	40.34306717	31.17341423	1.0
120	-2.749800205	0	0	-105.3693695	40.08883667	31.10405159	1.0
121	-2.749800205	0	0	-107.4316559	40.43890381	29.89059448	1.0
[RightHand]
118	-2.295179844	0	0	-2.299614906	19.408741	164.094574	1.0
119	-2.295179844	0	0	-2.656061411	19.2959404	164.1398926	1.0
120	-2.295179844	0	0	-2.74114275	19.33093643	164.2846527	1.0
121	-2.295179844	0	0	-1.97949779	19.17602348	164.2315369	1.0
[LeftUpLeg]
118	0.9094099998	0	0	-14.85204124	4.072244644	96.0370636	1.0
119	0.9094099998	0	0	-16.98401451	1.435827971	97.40339661	1.0
120	0.9094099998	0	0	-21.67729568	-1.777368426	100.2643127	1.0
121	0.9094099998	0	0	-27.59708405	-1.894804955	103.327301	1.0
[LeftLeg]
118	0	-4.498080254	0	18.86048317	1.850367904	84.61797333	1.0
119	0	-4.498080254	0	23.04397964	3.320934296	83.57939148	1.0
120	0	-4.498080254	0	30.59190369	4.041898251	79.47429657	1.0
121	0	-4.498080254	0	39.45633698	0.752220273	73.01705933	1.0
[LeftFoot]
118	0	-3.729400158	0	-75.68981934	101.4155502	-41.47917175	1.0
119	0	-3.729400158	0	-70.03381348	101.5356445	-34.13086319	1.0
120	0	-3.729400158	0	-56.70169449	102.2986679	-17.20476913	1.0
121	0	-3.729400158	0	-40.65065002	103.9988861	2.724197388	1.0
[LeftToeBase]
118	0	-0.5911099911	1.364109993	0	0	0	1.0
119	0	-0.5911099911	1.364109993	0	0	0	1.0
120	0	-0.5911099911	1.364109993	0	0	0	1.0
121	0	-0.5911099911	1.364109993	0	0	0	1.0
[RightUpLeg]
118	-0.9094099998	0	0	4.722407341	-11.17784691	83.4150238	1.0
119	-0.9094099998	0	0	5.751630783	-9.93218708	83.48126221	1.0
120	-0.9094099998	0	0	6.468184471	-10.51391792	84.21616364	1.0
121	-0.9094099998	0	0	6.153308392	-11.5110302	86.05905914	1.0
[RightLeg]
118	0	-4.498080254	0	27.27215195	0.3828884065	83.91119385	1.0
119	0	-4.498080254	0	26.8543644	1.528440237	84.89494324	1.0
120	0	-4.498080254	0	26.85305977	0.7760592699	84.73699188	1.0
121	0	-4.498080254	0	27.43481636	-0.5012161136	84.35275269	1.0
[RightFoot]
118	0	-3.729400158	0	73.60043335	49.25421143	105.8176422	1.0
119	0	-3.729400158	0	71.67370605	51.11626434	109.3319778	1.0
120	0	-3.729400158	0	62.11838531	49.91825867	107.9962921	1.0
121	0	-3.729400158	0	52.12454605	51.75847244	107.2004318	1.0
[RightToeBase]
118	0	-0.5911099911	1.364109993	0	0	0	1.0
119	0	-0.5911099911	1.364109993	0	0	0	1.0
120	0	-0.5911099911	1.364109993	0	0	0	1.0
121	0	-0.5911099911	1.364109993	0	0	0	1.0
[EndOfFile]
